<svg width="112" height="27" fill="none" xmlns="http://www.w3.org/2000/svg">
    <path d="M21.176 11.672c.792 0 1.416.228 1.872.684.48.432.72 1.02.72 1.764v6.264c0 1.2-.096 2.124-.288 2.772-.168.624-.492 1.116-.972 1.476-.456.36-1.152.672-2.088.936-.936.24-1.98.42-3.132.54a25.098 25.098 0 0 1-3.168.216c-2.76 0-5.16-.516-7.2-1.548-2.016-1.056-3.564-2.556-4.644-4.5-1.08-1.968-1.62-4.296-1.62-6.984 0-2.64.54-4.932 1.62-6.876A11.047 11.047 0 0 1 6.884 1.88C8.876.824 11.204.296 13.868.296c1.68 0 3.18.204 4.5.612 1.344.384 2.592.984 3.744 1.8.408.288.696.6.864.936.192.336.288.768.288 1.296 0 .744-.204 1.38-.612 1.908-.408.504-.9.756-1.476.756-.384 0-.72-.048-1.008-.144-.264-.12-.612-.312-1.044-.576-.888-.48-1.728-.828-2.52-1.044a9.284 9.284 0 0 0-2.52-.324c-2.28 0-3.984.636-5.112 1.908-1.104 1.272-1.656 3.228-1.656 5.868 0 2.712.576 4.728 1.728 6.048 1.176 1.296 2.964 1.944 5.364 1.944 1.152 0 2.292-.12 3.42-.36v-4.716h-2.592c-.792 0-1.404-.192-1.836-.576-.432-.408-.648-.972-.648-1.692s.216-1.272.648-1.656c.432-.408 1.044-.612 1.836-.612h5.94Zm23.765 8.64c.552 0 .996.216 1.332.648.36.432.54.996.54 1.692 0 .96-.468 1.692-1.404 2.196-.816.408-1.788.756-2.916 1.044-1.104.264-2.124.396-3.06.396-1.968 0-3.684-.372-5.148-1.116-1.464-.744-2.592-1.812-3.384-3.204-.792-1.392-1.188-3.024-1.188-4.896 0-1.776.372-3.36 1.116-4.752.768-1.416 1.824-2.508 3.168-3.276 1.368-.792 2.904-1.188 4.608-1.188 1.656 0 3.108.36 4.356 1.08 1.248.72 2.208 1.74 2.88 3.06.696 1.32 1.044 2.868 1.044 4.644 0 .552-.132.984-.396 1.296-.24.288-.6.432-1.08.432h-9.504c.168 1.152.54 1.98 1.116 2.484.576.504 1.428.756 2.556.756.6 0 1.152-.06 1.656-.18a20.332 20.332 0 0 0 1.692-.576c.36-.144.708-.264 1.044-.36.36-.12.684-.18.972-.18Zm-6.156-8.136c-.84 0-1.512.276-2.016.828-.504.528-.804 1.308-.9 2.34h5.652c-.144-2.112-1.056-3.168-2.736-3.168ZM63.92 7.928c.816-.072 1.464.12 1.944.576.48.432.72 1.08.72 1.944 0 .96-.228 1.656-.684 2.088-.432.432-1.224.708-2.376.828l-1.08.108c-1.2.144-2.064.528-2.592 1.152-.504.6-.756 1.428-.756 2.484v6.156c0 .984-.312 1.728-.936 2.232-.6.48-1.356.72-2.268.72-.912 0-1.68-.24-2.304-.72-.6-.504-.9-1.248-.9-2.232V10.808c0-.912.3-1.62.9-2.124.624-.504 1.368-.756 2.232-.756.888 0 1.596.24 2.124.72.552.48.828 1.152.828 2.016v.684c.384-1.056 1.008-1.872 1.872-2.448.888-.576 1.812-.888 2.772-.936l.504-.036ZM85.777.44c.96 0 1.74.276 2.34.828.624.528.936 1.212.936 2.052v19.944c0 .912-.288 1.632-.864 2.16-.576.528-1.344.792-2.304.792-.888 0-1.62-.228-2.196-.684-.552-.48-.864-1.128-.936-1.944-.504.84-1.248 1.5-2.232 1.98-.96.48-2.028.72-3.204.72-1.512 0-2.868-.384-4.068-1.152-1.176-.792-2.1-1.896-2.772-3.312-.672-1.416-1.008-3.036-1.008-4.86 0-1.824.324-3.42.972-4.788.672-1.392 1.596-2.46 2.772-3.204 1.2-.744 2.568-1.116 4.104-1.116 1.128 0 2.16.228 3.096.684.96.456 1.704 1.068 2.232 1.836V3.212c0-.84.276-1.512.828-2.016C84.05.692 84.817.44 85.777.44ZM79.261 21.5c1.128 0 1.992-.384 2.592-1.152.6-.768.9-1.872.9-3.312 0-1.416-.3-2.496-.9-3.24-.6-.768-1.464-1.152-2.592-1.152-1.104 0-1.956.372-2.556 1.116-.6.744-.9 1.812-.9 3.204 0 1.44.3 2.556.9 3.348.624.792 1.476 1.188 2.556 1.188Zm24.66-13.644c2.736 0 4.752.66 6.048 1.98 1.32 1.296 1.98 3.276 1.98 5.94V23.3c0 .912-.276 1.632-.828 2.16-.528.504-1.272.756-2.232.756-.84 0-1.536-.24-2.088-.72-.528-.48-.816-1.128-.864-1.944a3.985 3.985 0 0 1-1.692 2.016c-.792.48-1.74.72-2.844.72-1.224 0-2.328-.24-3.312-.72-.984-.504-1.764-1.188-2.34-2.052-.552-.888-.828-1.884-.828-2.988 0-1.272.324-2.28.972-3.024.672-.768 1.728-1.32 3.168-1.656 1.44-.336 3.384-.504 5.832-.504h.972v-.432c0-.84-.192-1.44-.576-1.8-.384-.384-1.032-.576-1.944-.576-.984 0-2.424.336-4.32 1.008-.552.192-1.02.288-1.404.288-.6 0-1.08-.216-1.44-.648-.36-.432-.54-.996-.54-1.692 0-.528.108-.96.324-1.296.216-.336.564-.636 1.044-.9.84-.432 1.896-.78 3.168-1.044a18.394 18.394 0 0 1 3.744-.396Zm-1.008 14.148c.864 0 1.572-.3 2.124-.9.552-.624.828-1.416.828-2.376v-.432h-.576c-1.536 0-2.628.144-3.276.432-.648.264-.972.72-.972 1.368 0 .552.168 1.008.504 1.368.36.36.816.54 1.368.54Z" fill="#FEFEFE"/>
</svg>
