<?xml version="1.0" encoding="UTF-8" standalone="no"?>
<!-- Created with Inkscape (http://www.inkscape.org/) -->

<svg
   version="1.1"
   id="svg2"
   width="328"
   height="296.444"
   viewBox="0 0 328 296.444"
   sodipodi:docname="logo.ai"
   xmlns:inkscape="http://www.inkscape.org/namespaces/inkscape"
   xmlns:sodipodi="http://sodipodi.sourceforge.net/DTD/sodipodi-0.dtd"
   xmlns="http://www.w3.org/2000/svg"
   xmlns:svg="http://www.w3.org/2000/svg">
  <defs
     id="defs6">
    <radialGradient
       fx="0"
       fy="0"
       cx="0"
       cy="0"
       r="1"
       gradientUnits="userSpaceOnUse"
       gradientTransform="matrix(148.06445,0,0,-138.30942,121.862,179.35614)"
       spreadMethod="pad"
       id="radialGradient30">
      <stop
         style="stop-opacity:1;stop-color:#fa0000"
         offset="0"
         id="stop22" />
      <stop
         style="stop-opacity:1;stop-color:#e30000"
         offset="0.543956"
         id="stop24" />
      <stop
         style="stop-opacity:1;stop-color:#e30000"
         offset="0.55943737"
         id="stop26" />
      <stop
         style="stop-opacity:1;stop-color:#8a0000"
         offset="1"
         id="stop28" />
    </radialGradient>
    <clipPath
       clipPathUnits="userSpaceOnUse"
       id="clipPath40">
      <path
         d="M 0,222.333 H 246 V 0 H 0 Z"
         id="path38" />
    </clipPath>
    <clipPath
       clipPathUnits="userSpaceOnUse"
       id="clipPath48">
      <path
         d="m 117.888,189.253 h 85.071 v -32.335 h -85.071 z"
         id="path46" />
    </clipPath>
    <linearGradient
       x1="0"
       y1="0"
       x2="1"
       y2="0"
       gradientUnits="userSpaceOnUse"
       gradientTransform="matrix(6.120296,-23.801106,-23.801106,-6.120296,155.19247,193.51424)"
       spreadMethod="pad"
       id="linearGradient64">
      <stop
         style="stop-opacity:1;stop-color:#000000"
         offset="0"
         id="stop54" />
      <stop
         style="stop-opacity:1;stop-color:#ffffff"
         offset="0.19269036"
         id="stop56" />
      <stop
         style="stop-opacity:1;stop-color:#ffffff"
         offset="0.445055"
         id="stop58" />
      <stop
         style="stop-opacity:1;stop-color:#ffffff"
         offset="0.4794967"
         id="stop60" />
      <stop
         style="stop-opacity:1;stop-color:#000000"
         offset="1"
         id="stop62" />
    </linearGradient>
    <clipPath
       clipPathUnits="userSpaceOnUse"
       id="clipPath86">
      <path
         d="M 14.0364,187.977 H 94.3202 V 138.692 H 14.0364 Z"
         id="path84" />
    </clipPath>
    <linearGradient
       x1="0"
       y1="0"
       x2="1"
       y2="0"
       gradientUnits="userSpaceOnUse"
       gradientTransform="matrix(27.556452,-52.357349,-52.357349,-27.556452,25.268057,213.94812)"
       spreadMethod="pad"
       id="linearGradient102">
      <stop
         style="stop-opacity:1;stop-color:#000000"
         offset="0"
         id="stop92" />
      <stop
         style="stop-opacity:1;stop-color:#ffffff"
         offset="0.19269036"
         id="stop94" />
      <stop
         style="stop-opacity:1;stop-color:#ffffff"
         offset="0.445055"
         id="stop96" />
      <stop
         style="stop-opacity:1;stop-color:#ffffff"
         offset="0.4794967"
         id="stop98" />
      <stop
         style="stop-opacity:1;stop-color:#000000"
         offset="1"
         id="stop100" />
    </linearGradient>
    <clipPath
       clipPathUnits="userSpaceOnUse"
       id="clipPath124">
      <path
         d="M 12.2752,190.341 H 137.913 V 22.2772 H 12.2752 Z"
         id="path122" />
    </clipPath>
    <linearGradient
       x1="0"
       y1="0"
       x2="1"
       y2="0"
       gradientUnits="userSpaceOnUse"
       gradientTransform="matrix(20.930332,33.59866,33.59866,-20.930332,42.666699,42.93895)"
       spreadMethod="pad"
       id="linearGradient142">
      <stop
         style="stop-opacity:1;stop-color:#000000"
         offset="0"
         id="stop130" />
      <stop
         style="stop-opacity:1;stop-color:#ffffff"
         offset="0.16176457"
         id="stop132" />
      <stop
         style="stop-opacity:1;stop-color:#ffffff"
         offset="0.373626"
         id="stop134" />
      <stop
         style="stop-opacity:1;stop-color:#ffffff"
         offset="0.5506898"
         id="stop136" />
      <stop
         style="stop-opacity:1;stop-color:#000000"
         offset="0.928571"
         id="stop138" />
      <stop
         style="stop-opacity:1;stop-color:#000000"
         offset="1"
         id="stop140" />
    </linearGradient>
  </defs>
  <sodipodi:namedview
     id="namedview4"
     pagecolor="#ffffff"
     bordercolor="#000000"
     borderopacity="0.25"
     inkscape:showpageshadow="2"
     inkscape:pageopacity="0.0"
     inkscape:pagecheckerboard="0"
     inkscape:deskcolor="#d1d1d1" />
  <g
     id="g8"
     inkscape:groupmode="layer"
     inkscape:label="logo"
     transform="matrix(1.3333333,0,0,-1.3333333,0,296.444)">
    <g
       id="g10">
      <g
         id="g12">
        <g
           id="g18">
          <g
             id="g20">
            <path
               d="m 120.029,172.093 c -12.178,7.602 -51.207,32.076 -85.984,15.931 v 0 C 2.017,173.153 -3.956,108.896 41.962,70.661 v 0 c 44.461,-37.023 75.967,-51.087 77.93,-51.946 v 0 c 0.197,-0.12 0.391,0.022 0.391,0.022 v 0 c 1.968,0.86 33.357,14.901 77.814,51.924 v 0 c 45.921,38.235 40.056,101.432 7.921,117.363 v 0 c -8.696,4.311 -17.555,6.012 -26.157,6.012 v 0 c -26.544,0 -50.629,-16.202 -59.832,-21.943"
               style="fill:url(#radialGradient30);stroke:none"
               id="path32" />
          </g>
        </g>
      </g>
    </g>
    <g
       id="g34">
      <g
         id="g36"
         clip-path="url(#clipPath40)">
        <g
           id="g42">
          <g
             id="g44" />
          <g
             id="g78">
            <g
               clip-path="url(#clipPath48)"
               opacity="0.589996"
               id="g76">
              <g
                 id="g74">
                <g
                   id="g72">
                  <g
                     id="g70">
                    <g
                       id="g68">
                      <path
                         d="m 202.959,182.679 c -0.605,0.343 -1.216,0.675 -1.839,0.984 -35.217,17.462 -68.526,-10.729 -83.232,-20 4.817,-2.65 8.707,-5.084 11.366,-6.745 11.414,7.119 40.196,34.335 73.705,25.761"
                         style="fill:url(#linearGradient64);stroke:none"
                         id="path66" />
                    </g>
                  </g>
                </g>
              </g>
            </g>
          </g>
        </g>
        <g
           id="g80">
          <g
             id="g82" />
          <g
             id="g116">
            <g
               clip-path="url(#clipPath86)"
               opacity="0.830002"
               id="g114">
              <g
                 id="g112">
                <g
                   id="g110">
                  <g
                     id="g108">
                    <g
                       id="g106">
                      <path
                         d="m 25.741,139.186 c 1.123,18.068 9.322,33.361 22.391,39.429 15.613,7.249 32.196,5.301 46.188,0.723 -15.743,7.197 -37.56,13.209 -57.767,3.827 -14.269,-6.622 -22.73,-24.247 -22.512,-44.473 z"
                         style="fill:url(#linearGradient102);stroke:none"
                         id="path104" />
                    </g>
                  </g>
                </g>
              </g>
            </g>
          </g>
        </g>
        <g
           id="g118">
          <g
             id="g120" />
          <g
             id="g156">
            <g
               clip-path="url(#clipPath124)"
               opacity="0.479996"
               id="g154">
              <g
                 id="g152">
                <g
                   id="g150">
                  <g
                     id="g148">
                    <g
                       id="g146">
                      <path
                         d="m 137.912,32.309 c -1.821,0.802 -42.614,15.653 -83.886,50.02 -42.631,35.499 -43.682,89.698 -13.95,103.503 12.072,5.606 9.861,6.333 -3.348,0.199 C 5.745,171.647 -0.037,109.489 44.386,72.506 87.394,36.691 120.15,22.277 120.15,22.277 c 0,0 17.947,9.922 17.762,10.032"
                         style="fill:url(#linearGradient142);stroke:none"
                         id="path144" />
                    </g>
                  </g>
                </g>
              </g>
            </g>
          </g>
        </g>
        <g
           id="g158"
           transform="translate(122.8335,68.9637)">
          <path
             d="m 0,0 c -0.82,0.044 -1.475,0.614 -1.538,1.341 l -5.921,66.744 -4.015,-28.939 c -0.102,-0.729 -0.802,-1.285 -1.627,-1.285 l -12.085,0.004 -3.189,-7.189 c -0.249,-0.562 -0.852,-0.927 -1.528,-0.927 -0.675,0.001 -1.281,0.365 -1.529,0.927 l -3.19,7.185 h -7.279 c -0.67,0 -1.273,0.361 -1.524,0.911 l -4.55,9.936 -4.175,-10.763 c -0.228,-0.586 -0.856,-0.984 -1.553,-0.984 h -28.8 v -0.004 c -0.908,0 -1.64,0.657 -1.64,1.466 0,0.807 0.732,1.458 1.64,1.458 h 27.626 l 5.219,13.446 c 0.221,0.576 0.822,0.967 1.507,0.984 0.682,0.016 1.308,-0.348 1.568,-0.912 l 5.784,-12.614 h 7.3 c 0.673,0 1.274,-0.37 1.522,-0.928 l 2.074,-4.671 2.074,4.675 c 0.246,0.554 0.854,0.924 1.528,0.924 h 11.745 l 5.827,41.999 c 0.099,0.743 0.822,1.293 1.662,1.277 0.843,-0.014 1.537,-0.594 1.602,-1.341 L 0.823,11.883 6.889,38.267 c 0.155,0.674 0.829,1.166 1.611,1.166 h 14.399 c 0.674,0 1.275,-0.368 1.528,-0.924 l 1.884,-4.249 9.421,27.135 c 0.212,0.618 0.858,1.04 1.59,1.028 0.732,-0.01 1.36,-0.446 1.559,-1.069 l 6.868,-21.921 34.756,-0.006 c 0.904,0 1.64,-0.651 1.64,-1.458 0,-0.803 -0.736,-1.458 -1.64,-1.458 H 44.502 c -0.736,0 -1.387,0.434 -1.581,1.071 L 37.223,55.78 28.068,29.427 c -0.207,-0.59 -0.804,-1.004 -1.5,-1.028 -0.704,-0.024 -1.341,0.346 -1.594,0.924 l -3.195,7.188 H 9.837 L 1.71,1.161 C 1.548,0.479 0.875,-0.004 0.1,-0.004 0.065,-0.004 0.032,-0.002 0,0"
             style="fill:#ffffff;fill-opacity:1;fill-rule:nonzero;stroke:none"
             id="path160" />
        </g>
      </g>
    </g>
  </g>
</svg>
