<svg xmlns="http://www.w3.org/2000/svg" xmlns:xlink="http://www.w3.org/1999/xlink" viewBox="0 0 200.36 208.08"><defs><style>.cls-1{isolation:isolate;}.cls-2{fill:url(#linear-gradient);}.cls-3{fill:url(#linear-gradient-2);}.cls-4{fill:url(#linear-gradient-3);}.cls-5{fill:url(#linear-gradient-4);}.cls-6{fill:url(#linear-gradient-5);}.cls-7{fill:url(#linear-gradient-6);}.cls-8{fill:url(#linear-gradient-7);}.cls-9{fill:url(#linear-gradient-8);}.cls-10{fill:url(#linear-gradient-9);}.cls-11{fill:url(#linear-gradient-10);}.cls-12{fill:url(#linear-gradient-11);}.cls-13{fill:url(#linear-gradient-12);}.cls-14{fill:url(#linear-gradient-13);}.cls-15{mix-blend-mode:multiply;fill:url(#radial-gradient);}.cls-16{fill:url(#linear-gradient-14);}</style><linearGradient id="linear-gradient" x1="244.77" y1="83.13" x2="252.59" y2="207.65" gradientUnits="userSpaceOnUse"><stop offset="0" stop-color="#b3e2f8"/><stop offset="1" stop-color="#3ca1e0"/></linearGradient><linearGradient id="linear-gradient-2" x1="250.95" y1="208.34" x2="209.74" y2="295.46" gradientUnits="userSpaceOnUse"><stop offset="0" stop-color="#eacfe0"/><stop offset="1" stop-color="#c156a5"/></linearGradient><linearGradient id="linear-gradient-3" x1="221.25" y1="266.12" x2="218.34" y2="278.88" gradientUnits="userSpaceOnUse"><stop offset="0.46" stop-color="#eacfe0"/><stop offset="1" stop-color="#c156a5"/></linearGradient><linearGradient id="linear-gradient-4" x1="257.17" y1="211.29" x2="215.96" y2="298.41" xlink:href="#linear-gradient-2"/><linearGradient id="linear-gradient-5" x1="228.91" y1="272.21" x2="222.19" y2="284.98" gradientUnits="userSpaceOnUse"><stop offset="0.3" stop-color="#eacfe0"/><stop offset="1" stop-color="#c156a5"/></linearGradient><linearGradient id="linear-gradient-6" x1="227.37" y1="220.19" x2="174.08" y2="265.65" gradientUnits="userSpaceOnUse"><stop offset="0.1" stop-color="#eacfe0"/><stop offset="0.65" stop-color="#d083bb"/><stop offset="1" stop-color="#c156a5"/></linearGradient><linearGradient id="linear-gradient-7" x1="1999.57" y1="208.34" x2="1958.37" y2="295.46" gradientTransform="matrix(-1, 0, 0, 1, 2248.62, 0)" xlink:href="#linear-gradient-2"/><linearGradient id="linear-gradient-8" x1="1969.88" y1="266.12" x2="1966.96" y2="278.88" gradientTransform="matrix(-1, 0, 0, 1, 2248.62, 0)" xlink:href="#linear-gradient-3"/><linearGradient id="linear-gradient-9" x1="2005.8" y1="211.29" x2="1964.59" y2="298.41" gradientTransform="matrix(-1, 0, 0, 1, 2248.62, 0)" xlink:href="#linear-gradient-2"/><linearGradient id="linear-gradient-10" x1="1977.54" y1="272.21" x2="1970.82" y2="284.98" gradientTransform="matrix(-1, 0, 0, 1, 2248.62, 0)" xlink:href="#linear-gradient-5"/><linearGradient id="linear-gradient-11" x1="1976" y1="220.19" x2="1922.71" y2="265.65" gradientTransform="matrix(-1, 0, 0, 1, 2248.62, 0)" xlink:href="#linear-gradient-6"/><linearGradient id="linear-gradient-12" x1="100.93" y1="58.93" x2="100.93" y2="120.55" xlink:href="#linear-gradient-6"/><linearGradient id="linear-gradient-13" x1="280.77" y1="188.88" x2="236" y2="281.53" xlink:href="#linear-gradient-6"/><radialGradient id="radial-gradient" cx="248.5" cy="237.81" r="13.84" gradientTransform="matrix(0.72, -0.7, 2.4, 2.49, -501.71, -180.4)" gradientUnits="userSpaceOnUse"><stop offset="0" stop-color="#c156a5"/><stop offset="0.23" stop-color="#cb72b3" stop-opacity="0.77"/><stop offset="0.74" stop-color="#e2b8d5" stop-opacity="0.19"/><stop offset="0.9" stop-color="#eacfe0" stop-opacity="0"/></radialGradient><linearGradient id="linear-gradient-14" x1="238.36" y1="72.88" x2="238.36" y2="316.61" xlink:href="#linear-gradient"/></defs><g class="cls-1"><g id="OBJECTS"><path class="cls-2" d="M347.73,161.77l-14.1-9.61L250,95.16l0,0-83.6,57-14.1,9.61a5.64,5.64,0,0,0-2.44,4.63v.08a5.59,5.59,0,0,0,8.74,4.62l7.8-5.31V205h12.37l-.41-47.4,71.62-48.8.07,0,0,0,71.63,48.8,0,47.41h11.91V165.71l7.8,5.31a5.6,5.6,0,1,0,6.3-9.25Z" transform="translate(-149.82 -95.13)"/><path class="cls-3" d="M234.17,278c.42,1.41-1.18,4.63-5.45,4.25s-24.72-10-24.72-10l26.6,2.91A4.17,4.17,0,0,1,234.17,278Z" transform="translate(-149.82 -95.13)"/><path class="cls-4" d="M234.17,278c.42,1.41-1.18,4.63-5.45,4.25s-24.72-10-24.72-10l26.6,2.91A4.17,4.17,0,0,1,234.17,278Z" transform="translate(-149.82 -95.13)"/><path class="cls-5" d="M243.1,291.47c0,2.1-1.14,4.12-6.07,3.82-9.15-8.48-20.34-16.1-33-23.08l35.3,14A5.9,5.9,0,0,1,243.1,291.47Z" transform="translate(-149.82 -95.13)"/><path class="cls-6" d="M243.1,291.47c0,2.1-1.14,4.12-6.07,3.82-9.15-8.48-20.34-16.1-33-23.08l35.3,14A5.9,5.9,0,0,1,243.1,291.47Z" transform="translate(-149.82 -95.13)"/><path class="cls-7" d="M201.83,287.77c11.56,9.1,23.31,13.91,35.21,15.41a2.83,2.83,0,0,0,2.94-4c-3.36-6.77-17.23-16.32-32-26.12a43.16,43.16,0,0,1-14.1-15.11c-2.48-4.53-4.39-10-3.88-15.57a9.4,9.4,0,0,1,11.4-8.37c.55.12,1.12.27,1.73.45,1.12.34,2.24.65,3.34,1,3.33,1.11,14.83,4.47,16.58-1.52,1.5-3.92-6-7.08-15.2-10.66-23.78-9.2-41.46-43.53-41.46-43.53C164.56,239.89,169.57,262.39,201.83,287.77Z" transform="translate(-149.82 -95.13)"/><path class="cls-8" d="M265.83,278c-.42,1.41,1.18,4.63,5.44,4.25s24.73-10,24.73-10l-26.6,2.91A4.16,4.16,0,0,0,265.83,278Z" transform="translate(-149.82 -95.13)"/><path class="cls-9" d="M265.83,278c-.42,1.41,1.18,4.63,5.44,4.25s24.73-10,24.73-10l-26.6,2.91A4.16,4.16,0,0,0,265.83,278Z" transform="translate(-149.82 -95.13)"/><path class="cls-10" d="M256.9,291.47c0,2.1,1.14,4.12,6.06,3.82,9.15-8.48,20.34-16.1,33-23.08l-35.3,14A5.9,5.9,0,0,0,256.9,291.47Z" transform="translate(-149.82 -95.13)"/><path class="cls-11" d="M256.9,291.47c0,2.1,1.14,4.12,6.06,3.82,9.15-8.48,20.34-16.1,33-23.08l-35.3,14A5.9,5.9,0,0,0,256.9,291.47Z" transform="translate(-149.82 -95.13)"/><path class="cls-12" d="M298.17,287.77c-11.56,9.1-23.31,13.91-35.21,15.41a2.84,2.84,0,0,1-2.95-4c3.36-6.77,17.24-16.32,32-26.12a43.13,43.13,0,0,0,14.09-15.11c2.49-4.53,4.39-10,3.89-15.57a9.4,9.4,0,0,0-11.4-8.37c-.55.12-1.13.27-1.73.45-1.12.34-2.24.65-3.35,1-3.33,1.11-14.82,4.47-16.57-1.52-1.5-3.92,5.95-7.08,15.2-10.66,23.78-9.2,41.45-43.53,41.45-43.53C335.44,239.89,330.43,262.39,298.17,287.77Z" transform="translate(-149.82 -95.13)"/><circle class="cls-13" cx="100.93" cy="96.26" r="15.38"/><path class="cls-14" d="M287.61,175s7.92,18.06-22.79,35a73.19,73.19,0,0,0-10.58,7c-11.07,8.9-29.57,28.12-20.41,51.73a12.77,12.77,0,0,0,12.73,8.28c5-.38,10-3.9,10.1-16.42,0,0-5,5.67-9.05,1.63a7.28,7.28,0,0,1-1.82-3.16c-1.18-4.1-1.54-14.7,19-27.17C290.42,216.18,308.55,196.11,287.61,175Z" transform="translate(-149.82 -95.13)"/><path class="cls-15" d="M263,222.46c-1.79-2.71-4.1-5.35-7.14-6.63-.54.4-1.08.8-1.6,1.22-6.41,5.16-15.31,13.79-19.89,24.72a89.46,89.46,0,0,1,11,14.14c0-5.21,3-14,19.48-24,.8-.49,1.59-1,2.37-1.49A53.41,53.41,0,0,0,263,222.46Z" transform="translate(-149.82 -95.13)"/><path class="cls-16" d="M256.35,256.42a29.58,29.58,0,0,0-9.56-17.15,67.91,67.91,0,0,0-10.11-7.33c-25.6-15.76-43.74-35.83-22.79-56.94,0,0-8,18.34,23.51,35.44a65.49,65.49,0,0,1,10,6.7c7.43,6,20,16.53,23.48,29.9,7.35,30.06-22.32,45.4-35.66,24.33,4,4.95,8,6.36,12.69,5.51,5.47-1,8.79-6.41,8.79-16.24A21.32,21.32,0,0,0,256.35,256.42Z" transform="translate(-149.82 -95.13)"/></g></g></svg>