<svg version="1.1" id="body_1" xmlns="http://www.w3.org/2000/svg" x="0" y="0" viewBox="0 0 1600 1600" style="enable-background:new 0 0 1600 1600" xml:space="preserve">
    <style>
        .st0{fill:#fea41d}
    </style>
    <path class="st0" d="M7530.2 8235.5c-46.6 265.3-83.3 530.7-117.3 796.1l-12.4 99.5-6.1 49.8-1.5 12.4c-.5 4.1-.9 8.7-1.7 11.4l-4 18.7c-10.5 49.4-29.4 95-55 135-25.9 39.8-57.7 74.4-94.4 101-36.6 26.5-76.6 46.2-117.7 57.2-41.1 11.1-82.5 14.8-122.9 10.9l-185.7-17-199.1-17.3c-66.4-5.7-132.7-11.3-199.1-16.4-265.5-21.4-530.9-40-796.4-56.4-132.7-8.5-265.5-15.8-398.2-23.2l-49.8-2.8-24.9-1.3-6.2-.3-3-.2-1.2-.3-4.6-1.1c-3.1-.7-6.1-1.2-9.2-1.6-3.1-.4-6.2-.5-9-1.9-5.8-2.2-11.6-3.2-17.3-5-22.5-7.4-42.3-20.3-59.9-34.8-17.6-14.7-32.3-32.6-43-51.9-10.6-19.4-17.7-39.5-21-59.9-2.1-10.1-1.9-20.6-2.2-30.9.4-2.7.6-5.3.7-7.9l.1-3.9v-3l.1-2.7 1.9-49.8 6.4-199.1c8.7-265.5 14.7-531.1 19.7-796.6 1.5-66.4 2.1-132.8 3.1-199.2v-3.1l-.1-5.3-.3-10.8-.7-21.5-2-43.1c-.4-14.4-2.4-28.7-4.3-43s-4-28.7-6.1-43c-3.6-28.7-11.5-56.8-18.3-85-3.8-14-6.7-28.3-11.7-41.9-4.6-13.8-9.4-27.5-14.3-41.1-79.4-218.7-240.6-403.4-445.3-513-25.9-13.1-51.9-26.1-78.6-37.6-27.1-10.6-54.4-20.6-81.8-30.1-27.9-8-56.1-15.3-84.3-22.2-28.3-6.2-57.1-10.1-85.8-14.4-14.3-2.4-28.7-3.4-43.1-4.2l-43.2-2.3c-34.2-1.7-43.8-.9-61.8-1.1l-99.6-.2-398.4 2c-132.8 1.6-265.6 2.5-398.4 4.6l-369.3 6.5c-19.7.1-38.7-3-57.4-9.8-18.6-6.6-37.1-16.8-53.3-30.5-16.3-13.6-30.1-30.5-40.9-49.1-10.5-18.8-17.7-39.5-21-62.6l-.9-4.3-.5-2.2c-.1-.4-.2-.6-.3-1.3l-.1-3.1-.9-24.9-2-49.8-4.1-99.6-8.3-199.2c-6.3-132.8-12.1-265.6-19.5-398.4-6.7-132.8-14.8-265.6-22.6-398.5-8.6-132.8-16.8-265.6-26.5-398.5-4.6-66.4-9.4-132.8-14.6-199.2l-12.6-168.8c-1-38.1 5.2-77 18.9-114.8s35.2-74 63-106.3c27.7-32.4 62.3-60.1 101.5-81.5l14.8-8.3c5.1-2.3 10.4-4.3 15.6-6.5l15.8-6.8c5.2-2.7 10.9-3.4 16.3-5.3l16.6-5.1c2.8-.8 5.6-1.9 8.4-2.6l8.6-1.6 17.4-3.5 8.8-1.9c1.6-.3 2.6-.7 4.8-.9l6.2-.7c132.8-13.7 265.7-28.5 398.5-44 265.7-31.7 531.4-66.1 797.2-110.5-265.4-46.9-530.7-83.7-796.1-117.9-132.7-16.8-265.4-32.8-398.1-47.8l-6.2-.7c-1.9-.3-5.1-.3-7.6-.5l-16.1-.7-32.4-1.2-16.3-.4c-5.4 0-10.8.5-16.3.8l-32.6 2.2c-10.9 1-21.9 1-32.7 3.1l-32.5 5.4c-10.9 1.9-21.8 3.7-32.6 6l-32.1 8.6c-85.6 23.4-167.6 63.7-240.6 117.6-73 54-136.6 122.5-186.7 201.2-50.2 78.7-85 168.6-103.1 262l-3.7 17.5c-1.2 5.9-1.7 11.8-2.5 17.6l-4.2 35.5-1.9 17.8-1.5 16.1-2.1 24.9-8.5 99.5c-5.8 66.4-11.2 132.7-16.4 199.1-10.9 132.7-20.4 265.5-30.2 398.2-9 132.7-18.3 265.5-26.3 398.2-8.6 132.8-15.7 265.5-23.2 398.2l-10.2 199.1-5 99.6-2.4 49.8-1.1 24.9-.1 3.1v5l.1 10.3.3 20.5c.9 109.5 22 220.7 62.8 324.5 40.6 103.9 101.7 199.4 177.1 281.7 75.6 82.2 166.4 151.1 267.6 201.4 101.1 50.3 212.3 81.9 324.9 92.8l42.3 3c13.5.9 30.8 1.8 36.5 1.9l49.8 1.6 99.6 2.7 199.2 5.2c132.8 3.4 265.5 5.5 398.3 8.4l398.3 5.7 99.6.8c15.1.1 38.8 0 37.7 1 2.2.3 4.4.4 6.6.4 2.2-.1 4.4-.3 6.4.6 4 1.3 8.4 1.1 12.4 2.1 3.9 1.6 7.9 2.6 12 3.2 3.7 2.1 7.5 3.5 11.5 4.5 3.7 1.9 7.1 4.3 11.2 5.5 14.8 7.8 28.5 18.6 39.9 31.4 11.5 12.8 20.1 27.6 26.4 42.9.7 1.9 1.6 3.8 2.6 5.7 1.3 1.8.9 4.1 1.6 6 .6 4.1 3.5 7.8 3.2 12.2.2 2.1.6 4.2 1.1 6.3.5 2.1 1.4 4.1 1 6.4 0 2.2.1 4.4.3 6.6l.5 3.3.3 1.7.2.9v3.1c.4 66.4.4 132.8 1.3 199.2 2.5 265.6 6.1 531.2 12.3 796.7l4.5 199.2 1.4 49.8.9 19.3 1.2 20.9 3 41.8c6.2 55.6 16 111.1 32.2 164.9 31.3 107.7 82.5 209.2 149.9 297.2 67.2 88.2 150 163.4 243.4 221.5 93.3 58.1 197.6 99.1 305.1 118.9 26.8 5 54 8 80.9 11.3 13.5 1.9 27 2.3 40.5 2.8l40.5 1.1 20.2.3h5l3.2-.1 6.2-.2 24.9-1.1 49.8-2.3c132.8-6.1 265.6-12.2 398.4-19.5 265.6-13.9 531.3-30 796.9-49 66.4-4.5 132.8-9.4 199.2-14.5l199.2-15.5 99.6-8.1 49.8-4.1 28.5-2.6 34.7-3.8c92-11.4 181.7-39.2 261.8-82.3 80.1-43 151.3-99.8 208.8-167 57.7-67 101.9-144 130.3-225.3 28.6-81.2 41.3-166.7 38.2-249.8l-1.3-31c-.1-5.6-.7-9.2-1.1-13.5l-1.4-12.5-5.6-49.8-11.5-99.6c-31.3-265.5-65.5-531.2-109.6-797" transform="matrix(.13333 0 0 -.13333 0 1600)"/>
    <path class="st0" d="M6334.7 6302.4c-36.5-19.5-73.2-37.8-109.1-57.8-36.3-19.1-72-39.3-107.5-59.4-71-40.5-140.6-82.4-208.2-126.6-67.9-43.7-133.6-90.1-197.5-137.9-32-23.8-63-48.8-94-73.4-30.4-25.5-60.8-50.6-90-77-58.8-52.1-115-106.4-167.6-163.2-52.2-56.7-101.2-114-144.5-175.2l-16.5-22.6c-5.4-7.6-10.3-15.5-15.5-23.3-10.1-15.6-20.7-30.8-30.6-46.5l-28.5-47.6c-4.9-7.8-9.3-15.9-13.6-24.1l-13-24.3-13-24.2c-4.2-8.2-7.9-16.6-12-24.8-7.8-16.6-16.3-32.7-23.5-49.5l-21.6-50.4c-7.1-16.8-13-34.2-19.6-51.2-24.9-68.7-47.1-138.2-63.4-210.2-16.6-71.8-31.1-144.1-40.6-218.4l-3.9-27.7-3.1-28-6.2-56.1c-3.4-38.9-7.5-77.6-10.3-116.4-2.4-38.8-6-77.4-7.4-116.2l-3-58c-1-19.3-1.3-38.7-2-58-4.7-154.7-2.4-309.3 5.8-466.6 3.5-78.4 8.5-157.9 13.8-237.7l17.2-242.2c5.7-81.3 12-163.5 17-246.1l16.2-238.9 5-57.9 2.6-26.8 1.3-12.8 1.5-12c3.9-31.7 8.7-57.8 14.3-77.7 5.6-20 11.5-33.6 17.6-43.4 1.8-2.2 3-4.8 4.6-6.9 1.9-1.9 3-4.3 4.8-6.2.9-.9 1.8-1.9 2.6-2.9s1.3-2 2.7-3.3c2.4-2.4 4.4-5.1 6.7-7.6 18.7-19.8 42.9-35.8 68.8-45.9 26-10.1 53-14.3 77.4-12.2l237.7 7.5 245.1 6.6c326.8 8.9 653.7 15.3 980.5 20.6l245.1 3.3 122.6 1.5 14.8.2c1.4.3 2.7.5 4.1.7 2.7.4 5.4.6 8.1.5 2.8-.5 5.2 1 7.8 1.4 2.5.6 5.1.9 7.8 1.1 20 4.6 38.6 13.8 55.3 26.6 16.5 12.9 31.3 29.2 39.8 48 9 18.5 14.4 37.6 15.2 59.3.2 1.3.4 2.7.6 4v14.7l-.1 30.6-.1 61.3-.3 122.6 1.5 490.3 4.2 490.3c.5 22.1-.1 34.3 2 75.8.9 17.5 2 35 3.3 52.4 1.3 17.4 4.5 34.9 7 52.3 2.8 17.4 5.5 34.8 8.9 52 4.1 17.1 8.5 34.2 13 51.3 8.3 34.3 20.8 67.3 33.3 100.2 3.2 8.2 6.3 16.4 9.7 24.5l11.2 23.8c7.6 15.9 15.4 31.6 23.3 47.3 3.8 7.9 8.3 15.5 12.8 23l13.6 22.5c9.2 14.9 18.3 29.9 28.2 44.3 10.3 14.1 20.8 28.1 31.5 41.9 10.7 13.8 21.2 27.8 33.2 40.5 23.6 25.7 46.6 51.9 73.1 74.6 102.7 94 226.4 164.9 359.7 205.6 33.6 8.8 67.3 18 101.5 24 17.1 2.7 34.3 5.2 51.5 7.5l25.8 3.3c8.6.9 17.2 1.1 25.8 1.6 17.2.9 34.4 1.5 51.6 2l12.9.3 6.4.1 4.1-.1 15.3-.4 61.3-1.4c163.5-3.4 326.9-8.1 490.4-12.6 163.5-4.6 326.9-10.2 490.4-15.7l122.6-4.5 61.3-2.3 30.7-1.1 7.7-.3 3.8-.1h7.6c32.7-1.9 65.2 2.4 96.8 14.5l3.1.9 2.8 1.5 5.7 2.9c3.8 1.9 7.8 3.5 11.8 5.2 3.5 2.4 7.2 4.7 11 6.9 3.7 2.3 8 3.9 11.1 6.9 6.5 5.7 14.8 9.7 20.8 16.3 3.3 3 6.7 5.9 10.2 8.7 3.3 3 5.9 6.6 9.1 9.8 24.3 26.2 44.3 57.7 54.7 93.6 1 4.5 2.2 9.1 3.5 13.6l2.1 6.8c.8 2.3.7 4.7 1.2 7.1.6 4.8 1.4 9.5 2.4 14.3l.7 3.6c.2 1.5.6 1.7.7 4.8l.8 15.3 6.3 122.6 13.4 245.2c18.5 327 39.5 653.9 63.5 980.9 12.1 163.5 24.8 327 38.5 490.5l2.6 30.7.6 7.7c.2 2.5.5 5.4.5 6.9l.6 11 1.6 22.3.4 5.6-.3 5.5-.5 11.1c-.3 7.5-.5 15-.6 22.6l-3 22.4c-1.2 7.4-1.3 15.3-3.3 22.6l-5.3 22.3-2.5 11.3c-1 3.7-2.5 7.3-3.7 10.9l-7.5 22.1c-2.1 7.7-6.1 14.3-9.2 21.6l-9.6 21.7-11.9 20.6c-4.2 6.8-7.4 14.4-12.5 20.6l-14 19.7c-2.4 3.3-4.5 6.8-7.1 9.9l-8 9.1c-41.9 50-96 92-158.6 121.1-7.8 3.5-16 6.3-24 9.6-8.1 3-16.1 6.9-24.5 9.2l-25.3 7c-8.5 2.4-17 5.3-25.8 6.3l-26.4 4.6-13.4 2.3-15.3 1.6-61.3 6.7c-163.5 18.5-327 36.8-490.6 59.6 163.3 24.3 326.7 44 490 64.1l61.3 7.2 15.3 1.8 17.2 1 34.9 1.8c11.7 1 23.3.1 35.1-.4l35.3-2c11.8-.8 23.4-3.2 35.1-4.8 11.7-1.9 23.6-3.5 35.3-5.9 93.4-20.1 183.5-62.7 261.4-123.7l14.7-11.4c4.8-3.9 9.2-8.3 13.8-12.4l27.4-25.5c9.5-8.3 17.2-18.1 25.7-27.3l25-28.4 22.4-30.5c7.2-10.4 15.3-20.3 21.4-31.5l19.3-33c3.1-5.6 6.5-11 9.4-16.7l8.1-17.4 16-35.1c5.5-11.7 8.9-24.2 13.4-36.3 4.2-12.3 8.4-24.5 12.3-37l9-38 4.3-19.1 2.1-9.6 1.3-9.7 5-38.9 2.3-19.6 1.5-16 2.9-30.6c15.2-163.4 29.4-326.7 43-490.1 27.1-326.8 51.1-653.5 72.6-980.3l15.7-245.1 7.5-122.5.9-15.3c.2-1.9.2-6.8.2-10.5v-11.7c0-15.6-.1-31.2-.4-46.9-.3-7.8 0-15.7-.9-23.5l-2.3-23.5c-1.7-15.7-3.4-31.3-5.4-47-37.6-250.9-195.7-482.9-422.3-610.6-112.9-64.1-242-103.2-372.5-111.4l-24.5-1.7-10-.6-7.7-.4-30.6-1.4-61.3-2.9-122.5-5.7c-163.4-7-326.8-14.1-490.2-20.2-163.4-6-326.8-12.3-490.2-17.1l-61.3-2-15.3-.5-3.6-.1-1.2-.3-2.4-.5c-3.2-.7-6.4-1.1-9.6-1.4-1.6-.2-3.2 0-4.8-.4-1.5-.6-3-1.1-4.5-1.5-3-.9-6-1.6-9.1-2.1-.8-.1-1.5-.2-2.3-.4l-2.1-1c-1.4-.6-2.8-1.2-4.3-1.8-2.9-1.1-5.8-1.9-8.7-2.5-22.3-9.5-42.5-23.8-58.9-41.6-4.9-3.7-7.4-9.6-11.5-13.9-2.3-2-3.4-5-4.9-7.5-1.5-2.6-3.2-5-5-7.3-1.4-2.6-2.3-5.5-3.7-8-.7-1.3-1.4-2.5-2.2-3.8-.8-1.2-1.7-2.4-1.9-3.9-.8-2.8-1.9-5.5-3-8.1-.6-1.3-1.2-2.6-1.9-3.8-.4-1.4-.5-2.9-.9-4.2-1.2-5.6-4-10.6-4-16.4-.5-2.8-1.1-5.5-2-8.2-.1-2.9 0-5.8-.3-8.6 0-2.9-1.2-5.5-.9-8.5.3-3 .5-5.9.4-8.8-.6.7.1-27.9.5-46.7l8.8-490.3 6.1-490.3.9-122.6.4-61.3.2-30.6.1-16-.8-26.6c-3.2-141.7-38.8-284.7-104-411.8-64.6-127.6-159.3-238.3-272.6-324.3-113.3-85.9-246.5-147.6-386.8-175.3-17.5-3-35.1-5.8-52.8-8.4-17.6-2.4-35.3-5.6-52.9-6.3-17.7-1.1-35.4-2.1-53.1-2.8l-26.5-1h-15.9l-122.6.4-245.2 1c-326.9 2.3-653.8 5.6-980.7 11.5l-245.2 4.3-252.6 5.9c-69.5 2.2-138.3 12.1-204.5 29.6-66.3 17.6-130 42.8-190.1 74.2-120.1 63-226.2 152.2-308 261.4-10.1 13.7-19.8 27.8-29.4 41.9-9.6 14-18.9 30.1-28 45.2-9.1 15.4-17 31.4-25.2 47.3-7.9 15.9-14.8 32.2-21.9 48.3-27.2 65-44.3 130.3-54.9 190.3-10.6 60.2-15.1 115.5-17.4 165.2l-.8 18.6-.5 17.8c-.4 12.1-.6 23.2-.7 34.4l-.2 64.6 3.8 251.2 5.3 244.1c3.1 163.8 8 330.8 17.7 500.6 5 84.7 12.1 170.3 20.3 255.8 4.8 42.9 8.8 85.6 14.8 128.5l8.5 64.2c2.9 21.4 6.4 42.7 9.6 64.1 12.6 85.4 28.8 170.3 46.2 254.5 8.7 42.1 18.7 83.9 28 125.8 5 21.2 10.7 43 16.1 64.4l8.3 32.2 9.3 32.2c23.8 85.8 52.9 171.2 86.5 254.9 33.2 83.8 72.8 166 117.2 245.2 44.1 79.4 94.5 155.5 149.9 227.1l20.8 26.8c6.9 9 13.9 17.8 21.4 26.3l44 51.3c15 16.8 30.6 32.9 46 49.2 7.8 8.1 15.3 16.4 23.3 24.2l24.2 23.2c16.3 15.3 31.8 31.3 48.7 45.7l50.1 43.7c16.6 14.5 34.4 27.6 51.6 41.4 17.3 13.7 34.5 27.3 52.2 39.7 69.6 51.9 142.3 98.4 216.1 141.7 73.9 43.2 149.3 82.7 226.2 117.9 76.8 35.5 154.4 67.9 233.2 96.1 156.9 57.6 317 102.3 478.9 134.4" transform="matrix(.13333 0 0 -.13333 0 1600)"/>
    <path d="M4216.6 5271.5c-9.5 26.7-18.6 53.6-27.1 80.8-8.5 27.2-15.9 54.7-23.5 82.3-3.7 13.8-7.1 27.7-10.4 41.6-3.4 13.9-6.6 27.9-9.5 42l-8.9 42.3-7.8 42.6c-19.9 114-28.5 231.5-25.6 351.3 2.7 59.8 6.6 120.4 16.5 180.9 4 30.4 10.3 60.7 16.5 91.1 2.8 15.3 7.2 30.2 10.9 45.4 4 15.1 7.5 30.4 12 45.5 35.4 120.6 88.4 239.9 160.1 350.2l28.2 40.5c9.5 13.5 18.8 27.2 29.4 39.9 20.7 25.7 40.8 52.3 63.5 76.3l33.7 36.7c11.5 12 23.6 23.1 35.5 34.8 12 11.4 23.9 23.2 36.2 34.3l37.8 32.2c101.9 85 214.4 155.5 331.2 211.9 14.6 7 29.2 14.6 43.9 21.2l44.3 19.1 44.6 18.7c14.9 6 29.4 10.9 44.1 16.4 29.4 10.5 58.8 22 88.6 31.4l44.6 14.7c14.8 5.1 30.4 8.9 45.5 13.4l45.9 12.9 45.6 11.4c30.6 7.9 60.6 14.3 90.9 21 60.4 13 120 23.2 179.1 33 235.6 37.4 459 55.2 660.8 85.1 24.9 3.9 50 7.7 74.2 12l70.1 13.9c11.7 2.4 23.4 3.9 35 6.9l34.8 8.3c23.1 5.8 46.4 10.4 69.3 16.9 45.9 13.4 91.8 25.4 137.1 41.1l34.1 11 17 5.5 16.9 6.3 67.4 25.1c358.2 139.8 695.3 357.4 1012.7 616.8l4.9 4c173.3 141.6 428.6 115.9 570.3-57.4 50.9-62.3 80.1-134.7 88.7-209.1l3.1-26.3 2.5-22.9 4.3-44.3c2.7-29.2 5.1-58.1 7.3-86.9 4.5-57.5 7.4-114.6 9.6-171.7 4.3-114.1 5.9-228.1 3-342.3-2.6-114.2-8.4-228.5-18.9-343.1-5-57.3-11.1-114.6-18.2-172-7.2-57.3-16-114.8-25.2-172.2-38-229.6-95.7-460-182.6-686.6-44.8-112.9-95.1-225.3-157.8-333.9-61.4-108.9-134.3-214.4-218.4-312.7-41.9-49.3-87.8-96-135.6-140.7-24.8-21.8-48.7-44-74.7-64.4-12.9-10.3-25.4-20.9-38.7-30.7l-40-29.2-10.1-7.3-11-7.4-22-14.8c-14.6-9.7-29.9-20.2-42.8-26.7l-80.6-44.2c-27-15.3-53.4-27.1-79.9-39.9-26.5-12.5-52.8-25.6-79.5-37.5-213.9-94.3-435.4-162.6-659.5-205.4-224.3-41.8-451.6-57-674.9-45.4-223.2 12.3-443 51-649 122.7 217.4 17.2 427 50 628.8 101 201.7 50.5 395.6 117.6 579.6 199.9 183.7 83.2 357.8 181 518.3 291.6 20.1 13.8 39.4 28.6 59.1 42.7 19.4 14.3 39.8 28.4 57 43l53.9 42.7c10 7.3 15.5 13.6 22.1 20.1l9.7 9.6 4.9 4.7 5.3 5.5c28.8 29.3 55.9 60.4 81.8 92.6 25.2 33.1 49.3 67.2 71.9 102.9 89.5 143.6 156 310.4 203.9 488.7 48.2 178.5 78.5 367.9 97.2 561.1 4.5 48.4 8.6 96.9 11.4 145.9 3.1 48.9 6 97.9 7.6 147.1 1.9 49.2 2.7 98.6 3.3 148.1.6 49.5.8 99 0 148.7-1.8 99.3-4.7 198.8-10.8 297.8-3.1 49.5-6.8 98.9-10.7 147.8-2 24.4-4.2 48.7-6.6 72.6l-3.7 35.3-3.6 30.4 663.9-262.4c-184.9-151.5-381.6-293.7-594.6-416.8-52.4-31.8-107.7-59.8-162-89.1-27.5-14.2-55.6-27.6-83.3-41.4l-41.8-20.5-42.6-19.3-85.7-37.5-87.4-34.6c-14.6-5.6-29-11.8-43.9-16.9l-44.5-15.6c-29.8-10.3-59.1-21.2-89.4-30.3l-90.8-27-22.7-6.7-23-5.9-46-11.6c-30.8-7.4-61.1-16.2-92.4-21.9l-93.3-18.5c-31.1-6-62.8-10-94.1-15l-47.1-7.1c-15.6-2.5-31.6-3.6-47.4-5.5l-94.8-9.2c-30.9-2.4-61.1-4-91.4-5.8-240.4-11.6-461.5-3.1-668.2-7.6-25.5-.8-51.4-1.2-76.5-2.3-24.9-1.3-50.7-2-75.1-3.8-24.7-1.5-49.6-2.8-73.6-5.3l-36.4-3.2-35.6-4.3c-23.7-2.5-47.8-6.4-71.9-10-24.3-3.3-47.9-8.4-72.1-12.5-11.9-2.3-24.3-4.1-35.9-6.7l-34.3-7.9-34.5-7.6c-11.4-2.7-22.4-6.2-33.6-9.2-180-48.9-343-130.4-478.2-256.1l-24.6-24.4c-8.1-8.3-16.9-16.1-24.3-25-15.3-17.5-31.6-34.6-45.9-53.5l-22.3-27.9-20.8-29.4-10.5-14.8c-3.4-5-6.5-10.2-9.8-15.3l-19.8-30.9c-50.9-83.9-92.6-177.3-126.7-276.3-66.9-198.2-99.8-417.7-115-643.6" style="fill:#5cc7b1" transform="matrix(.13333 0 0 -.13333 0 1600)"/>
</svg>
