<?xml version="1.0" standalone="no"?>
<!DOCTYPE svg PUBLIC "-//W3C//DTD SVG 20010904//EN"
 "http://www.w3.org/TR/2001/REC-SVG-20010904/DTD/svg10.dtd">
<svg version="1.0" xmlns="http://www.w3.org/2000/svg"
 width="305.000000pt" height="280.000000pt" viewBox="0 0 305.000000 280.000000"
 preserveAspectRatio="xMidYMid meet">

<g transform="translate(0.000000,280.000000) scale(0.100000,-0.100000)"
fill="#000000" stroke="none">
<path d="M1400 1392 c0 -4 20 -30 44 -57 32 -36 47 -47 55 -39 18 16 4 38 -44
73 -45 32 -55 36 -55 23z"/>
<path d="M750 1215 c43 -115 175 -270 311 -366 29 -19 32 -20 19 -4 -23 30
-300 357 -322 380 -19 20 -19 20 -8 -10z"/>
<path d="M2112 1038 c-85 -99 -152 -181 -150 -183 8 -8 152 123 198 179 45 55
116 173 108 180 -1 2 -72 -77 -156 -176z"/>
<path d="M1347 1070 c8 -30 80 -90 107 -90 14 0 37 5 53 11 27 10 25 11 -66
55 -51 24 -95 44 -96 44 -2 0 -1 -9 2 -20z"/>
<path d="M1298 933 c7 -3 16 -2 19 1 4 3 -2 6 -13 5 -11 0 -14 -3 -6 -6z"/>
<path d="M1358 828 c23 -25 40 -34 53 -31 11 3 18 6 17 7 -2 2 -25 15 -53 31
l-50 28 33 -35z"/>
<path d="M1631 821 c-25 -13 -30 -19 -18 -24 9 -3 24 5 38 19 27 28 25 29 -20
5z"/>
</g>
</svg>
