<svg version="1.0" xmlns="http://www.w3.org/2000/svg" width="406.667" height="373.333" viewBox="0 0 305 280">
    <path d="M140 140.8c0 .4 2 3 4.4 5.7 3.2 3.6 4.7 4.7 5.5 3.9 1.8-1.6.4-3.8-4.4-7.3-4.5-3.2-5.5-3.6-5.5-2.3zM75 158.5c4.3 11.5 17.5 27 31.1 36.6 2.9 1.9 3.2 2 1.9.4-2.3-3-30-35.7-32.2-38-1.9-2-1.9-2-.8 1zM211.2 176.2c-8.5 9.9-15.2 18.1-15 18.3.8.8 15.2-12.3 19.8-17.9 4.5-5.5 11.6-17.3 10.8-18-.1-.2-7.2 7.7-15.6 17.6zM134.7 173c.8 3 8 9 10.7 9 1.4 0 3.7-.5 5.3-1.1 2.7-1 2.5-1.1-6.6-5.5-5.1-2.4-9.5-4.4-9.6-4.4-.2 0-.1.9.2 2zM129.8 186.7c.7.3 1.6.2 1.9-.1.4-.3-.2-.6-1.3-.5-1.1 0-1.4.3-.6.6zM135.8 197.2c2.3 2.5 4 3.4 5.3 3.1 1.1-.3 1.8-.6 1.7-.7-.2-.2-2.5-1.5-5.3-3.1l-5-2.8 3.3 3.5zM163.1 197.9c-2.5 1.3-3 1.9-1.8 2.4.9.3 2.4-.5 3.8-1.9 2.7-2.8 2.5-2.9-2-.5z"/>
</svg>
