<svg width="375" height="812" fill="none" xmlns="http://www.w3.org/2000/svg">
    <rect width="375" height="812" rx="25" fill="#fff"/>
    <path fill="#fff" d="M0 0h375v812H0z"/>
    <mask id="a" style="mask-type:alpha" maskUnits="userSpaceOnUse" x="0" y="0" width="375" height="812">
        <path fill="#fff" d="M0 0h375v812H0z"/>
    </mask>
    <g mask="url(#a)">
        <path d="M343.742 460.696c-67.349-101.494-142.282-37.345-171.33 7.416-21.278 93.686-252.279 27.632-167.878 103.111 67.52 60.384 5.317 217.208-34.225 288.072l676.443-55.966c63.314-44.442-10.339-178.94-112.36-170.499-102.021 8.44-106.464-45.266-190.65-172.134Z" fill="#FEA41D"/>
        <path d="M-158.421 160.765c-58.799-5.199-70.766-63.302-69.4-91.703L221.761-57.291S277.462 38.353 297 82c19.538 43.647-30.205 65.296-69 52.923-38.795-12.373-45.493 70.976-73.465 126.682-27.971 55.707-171.594-22.895-178.954-71.258-7.36-48.363-60.502-23.083-134.002-29.582Z" fill="#6CD8D1"/>
        <path d="M-11.62 435.11c-83.736.916-69.746 169.184-52.284 253.204-20.788 161.623 184.636 124.088 197.184 148.588l69.731-111.61c31.935-247.654 170.357-186.383 230.491-197.853 60.133-11.47-8.145-267.377-39.222-331.537-31.077-64.16-28.138-7.298-129-44s-122.837 37.27-117.771 127.152C152.803 372.988 93.05 433.965-11.62 435.11Z" fill="#255ED6"/>
        <path d="M103.959-171.241c-77.98-43.736 28.31-195.057 91.202-265.25L337.405-530l128.418 195.346C358.62-85.049 522.294-71.884 572.307-30.291 622.32 11.3 488.261 127.607 423.604 172.124c-64.657 44.517-184.802 93.308-299.666 76.233-114.863-17.075-11.759-109.077 42.761-191.14 56.977-85.76 34.735-173.787-62.74-228.458Z" fill="#2E4FFF"/>
        <path d="M-1 680c92.145 163.175 355.852 220.328 347 120-6-68-81-109-12-164 82.604-65.844 299.613-458.999 186.1-501.588-113.512-42.589-151.865 1.297-224.063-145.572C263.973-76.386 75.06 18.265 44.18 115.881 8.24 229.497.417 200.544-1 172.088V147s-.627 12.495 0 25.088V680Z" fill="#fff"/>
    </g>
</svg>
