<svg width="375" height="812" fill="none" xmlns="http://www.w3.org/2000/svg">
    <g clip-path="url(#a)">
        <path fill="#fff" d="M0 0h375v812H0z"/>
        <path fill="#fff" d="M0 0h375v812H0z"/>
        <path d="M290.235 469.403c-72.074-101.103-153.439-36.422-185.112 8.556-23.606 93.879-272.685 29.32-182.02 104.282 72.533 59.969 4.303 217.291-38.879 288.456l731.039-60.482c68.684-44.887-9.981-178.97-120.236-169.848-110.255 9.122-114.698-44.585-204.792-170.964Z" fill="#FEA41D"/>
        <path d="M-158.141 160.765c-58.799-5.199-70.766-63.302-69.4-91.703L222.041-57.291S277.742 38.353 297.28 82c19.538 43.647-30.205 65.296-69 52.923-38.795-12.373-45.493 70.976-73.464 126.682-27.972 55.707-171.595-22.895-178.955-71.258-7.36-48.363-60.502-23.083-134.002-29.582Z" fill="#6CD8D1"/>
        <path d="M104.239-171.241c-77.98-43.736 28.31-195.057 91.202-265.25L337.685-530l128.418 195.346C358.9-85.049 522.574-71.884 572.587-30.291 622.6 11.3 488.541 127.607 423.884 172.124c-64.657 44.517-184.802 93.308-299.665 76.233-114.864-17.075-11.76-109.077 42.76-191.14 56.978-85.76 34.736-173.787-62.74-228.458Z" fill="#255ED6"/>
        <path d="M346.28 800c8.852 100.328-254.855 43.175-347-120L-17 145s9.616 134.775 61.46-29.119C75.34 18.266 264.254-76.386 296.317-11.159c72.198 146.868 110.551 102.982 224.064 145.571C633.893 177.001 416.884 570.156 334.28 636c-69 55 6 96 12 164Z" fill="#2663E3"/>
        <path d="M-15.61 400.066C-93.503 402.769-42.353 451.975-28 527c-22.962 145.543 75.49 179.102 140 191 64.511 11.898 65.471-62.283 65.471-62.283 35.261-223.015 162.612-171.126 218.792-182.772 56.179-11.646-1.569-239.819-29.029-296.712-27.46-56.894-26.003-5.919-118.977-36.598s-115.071 36.213-112.379 116.779c2.814 84.197-54.124 140.274-151.489 143.652Z" fill="#255ED6"/>
        <path d="m164 727-.424-.266.424.266ZM.685 665.388c.355.289.72.588 1.092.896l.637-.771c-.375-.31-.741-.61-1.099-.901l-.63.776Zm3.388 2.818c.72.608 1.466 1.245 2.238 1.907l.651-.759a451.967 451.967 0 0 0-2.243-1.912l-.646.764Zm4.47 3.832c.74.64 1.499 1.299 2.277 1.976l.656-.754a855.834 855.834 0 0 0-2.278-1.978l-.655.756Zm4.471 3.888 2.257 1.97.658-.754-2.258-1.969-.657.753Zm4.469 3.899c.74.644 1.49 1.299 2.253 1.962l.656-.755-2.252-1.961-.657.754Zm4.475 3.89 2.262 1.955.652-.758a1068.54 1068.54 0 0 1-2.26-1.953l-.654.756Zm4.49 3.872c.751.643 1.51 1.293 2.277 1.946l.649-.761c-.766-.653-1.525-1.301-2.275-1.944l-.65.759Zm4.515 3.847a836.99 836.99 0 0 0 2.28 1.922l.643-.766a696.929 696.929 0 0 1-2.277-1.92l-.646.764Zm4.545 3.816a660.06 660.06 0 0 0 2.285 1.894l.637-.771a574.963 574.963 0 0 1-2.282-1.892l-.64.769Zm4.579 3.778c.76.621 1.525 1.244 2.296 1.867l.629-.778a611.449 611.449 0 0 1-2.292-1.863l-.633.774Zm4.617 3.734a473.91 473.91 0 0 0 2.312 1.838l.62-.784a472.11 472.11 0 0 1-2.307-1.835l-.625.781Zm4.648 3.674c.777.607 1.558 1.212 2.342 1.817l.61-.792a476.737 476.737 0 0 1-2.336-1.813l-.616.788Zm4.697 3.618c.788.599 1.578 1.195 2.372 1.789l.599-.801c-.792-.592-1.58-1.187-2.366-1.784l-.605.796Zm4.751 3.556c.796.586 1.595 1.17 2.396 1.75l.587-.81a368.85 368.85 0 0 1-2.39-1.745l-.593.805Zm4.807 3.481c.806.574 1.615 1.144 2.425 1.709l.572-.82a329.542 329.542 0 0 1-2.417-1.703l-.58.814Zm4.866 3.396c.818.56 1.638 1.116 2.46 1.666l.556-.831a316.027 316.027 0 0 1-2.452-1.66l-.564.825Zm4.929 3.3c.832.544 1.665 1.083 2.5 1.615l.538-.843c-.831-.53-1.662-1.067-2.49-1.609l-.548.837Zm5.009 3.195c.843.524 1.688 1.042 2.532 1.551l.517-.856c-.84-.507-1.681-1.022-2.521-1.544l-.528.849Zm5.088 3.071c.855.5 1.709.991 2.563 1.474l.492-.87c-.85-.481-1.7-.97-2.55-1.467l-.505.863Zm5.174 2.924c.87.475 1.74.939 2.608 1.394l.464-.886c-.864-.452-1.728-.914-2.594-1.386l-.478.878Zm5.265 2.754c.89.445 1.778.879 2.666 1.302l.43-.903c-.882-.42-1.765-.851-2.649-1.293l-.447.894Zm5.364 2.552c.912.411 1.822.808 2.73 1.192l.389-.921a126.47 126.47 0 0 1-2.708-1.183l-.41.912Zm5.473 2.313c.935.368 1.868.721 2.797 1.058l.341-.94c-.921-.334-1.845-.684-2.771-1.048l-.367.93Zm5.592 2.025a92.86 92.86 0 0 0 2.864.891l.281-.96a89.843 89.843 0 0 1-2.833-.881l-.312.95Zm5.715 1.672c.981.249 1.956.477 2.927.683l.207-.978a74.413 74.413 0 0 1-2.887-.674l-.247.969Zm5.837 1.235c.998.167 1.99.308 2.976.424l.116-.993a61.356 61.356 0 0 1-2.928-.417l-.164.986Zm5.937.692a51.42 51.42 0 0 0 3 .102l.004-1a50.336 50.336 0 0 1-2.941-.1l-.063.998Zm5.986.018a42.993 42.993 0 0 0 2.982-.287l-.131-.991c-.96.127-1.931.22-2.912.28l.061.998Zm5.937-.791c.981-.207 1.95-.452 2.906-.735l-.284-.959a35.99 35.99 0 0 1-2.828.715l.206.979Zm5.743-1.708a34.91 34.91 0 0 0 2.75-1.214l-.443-.896c-.877.433-1.767.825-2.671 1.179l.364.931Zm5.374-2.655a35.628 35.628 0 0 0 2.498-1.664l-.589-.808a34.545 34.545 0 0 1-2.427 1.617l.518.855Zm4.849-3.528a39.419 39.419 0 0 0 2.187-2.034l-.708-.706a38.158 38.158 0 0 1-2.132 1.982l.653.758Zm4.232-4.237a46.851 46.851 0 0 0 1.871-2.313l-.797-.604a44.959 44.959 0 0 1-1.831 2.263l.757.654Zm3.608-4.757c.282-.423.562-.856.839-1.296l-.848-.532c-.271.433-.546.857-.823 1.273l.832.555Zm.839-1.296c.263-.421.524-.845.783-1.272l-.856-.517c-.255.422-.514.841-.775 1.257l.848.532Zm2.302-3.871c.496-.879.982-1.77 1.458-2.673l-.885-.466c-.471.895-.953 1.777-1.444 2.648l.871.491Zm2.853-5.41c.438-.889.867-1.788 1.288-2.698l-.908-.42c-.417.903-.843 1.795-1.277 2.676l.897.442Zm2.525-5.458c.404-.93.8-1.87 1.188-2.819l-.926-.378c-.385.942-.778 1.876-1.179 2.799l.917.398Zm2.306-5.638c.357-.928.708-1.865 1.051-2.811l-.939-.341a166.7 166.7 0 0 1-1.045 2.793l.933.359Zm2.062-5.671c.331-.961.654-1.931.972-2.908l-.951-.309c-.316.972-.638 1.936-.966 2.892l.945.325Zm1.879-5.774c.294-.954.583-1.915.866-2.882l-.96-.28c-.282.962-.569 1.918-.861 2.867l.955.295Zm1.699-5.802c.272-.979.54-1.965.802-2.957l-.967-.256c-.261.988-.527 1.97-.799 2.945l.964.268Zm1.552-5.86c.244-.969.485-1.944.72-2.923l-.972-.235c-.235.977-.474 1.948-.718 2.913l.97.245Zm1.416-5.877c.228-.99.452-1.985.672-2.984l-.977-.215c-.219.996-.442 1.988-.67 2.974l.975.225Zm1.304-5.918c.207-.979.41-1.962.611-2.949l-.98-.199c-.2.985-.403 1.965-.609 2.941l.978.207Zm1.202-5.921c.193-.994.384-1.993.572-2.994l-.982-.185c-.188 1-.378 1.996-.572 2.988l.982.191Zm1.119-5.957c.178-.985.354-1.973.528-2.964l-.985-.173c-.173.989-.349 1.975-.527 2.958l.984.179Zm1.041-5.945c.169-.997.336-1.996.501-2.998l-.987-.162c-.164 1-.331 1.998-.5 2.992l.986.168Zm.985-5.984c.158-.989.315-1.98.469-2.973l-.988-.154c-.154.992-.31 1.982-.468 2.969l.987.158Zm.929-5.959c.151-.997.302-1.996.45-2.997l-.989-.147c-.148.999-.298 1.997-.45 2.994l.989.15Zm.892-5.997c.145-.992.289-1.986.431-2.981l-.99-.142c-.142.994-.286 1.987-.43 2.979l.989.144Zm.857-5.97.42-2.995-.99-.138-.421 2.993.991.14Zm.836-5.995.412-2.991-.991-.136c-.136.997-.274 1.994-.411 2.99l.99.137Zm.821-5.983.409-2.993-.991-.135-.408 2.993.99.135Zm.817-5.987.408-2.995-.99-.135-.409 2.995.991.135Zm.819-5.99.413-2.992-.99-.137c-.139.997-.276 1.995-.414 2.993l.991.136Zm.83-5.981.421-2.985-.99-.141c-.141.995-.282 1.991-.421 2.987l.99.139Zm.851-5.984c.144-.999.289-1.996.435-2.992l-.989-.145c-.147.997-.292 1.995-.436 2.994l.99.143Zm.878-5.975c.149-.993.299-1.985.451-2.974l-.988-.152c-.152.991-.303 1.983-.452 2.977l.989.149Zm.916-5.967c.157-.999.316-1.996.477-2.991l-.988-.159c-.161.996-.32 1.994-.477 2.995l.988.155Zm.964-5.968c.165-.99.332-1.978.501-2.963l-.986-.169c-.169.987-.336 1.976-.501 2.968l.986.164Zm1.019-5.937c.176-.998.356-1.994.538-2.987l-.984-.18c-.182.995-.362 1.992-.539 2.993l.985.174Zm1.092-5.955c.187-.987.377-1.97.57-2.949l-.981-.193c-.193.981-.384 1.967-.572 2.955l.983.187Zm1.162-5.895c.205-.996.412-1.989.624-2.977l-.978-.209c-.212.991-.42 1.986-.625 2.986l.979.2Zm1.268-5.93c.218-.981.44-1.956.666-2.927l-.974-.227c-.227.974-.449 1.953-.668 2.936l.976.218Zm1.358-5.839c.241-.991.486-1.977.736-2.958l-.969-.247a257.48 257.48 0 0 0-.738 2.969l.971.236Zm1.499-5.883c.259-.97.523-1.934.791-2.892l-.962-.27c-.27.962-.535 1.93-.795 2.904l.966.258Zm1.617-5.765c.288-.98.582-1.953.882-2.919l-.955-.296c-.301.971-.597 1.948-.886 2.933l.959.282Zm1.799-5.797c.311-.953.628-1.898.951-2.836l-.945-.326c-.325.943-.644 1.894-.957 2.851l.951.311Zm1.953-5.661c.349-.959.705-1.909 1.068-2.851l-.933-.36c-.365.948-.724 1.904-1.075 2.869l.94.342Zm2.179-5.65c.378-.924.763-1.84 1.155-2.746l-.917-.397c-.396.912-.784 1.834-1.164 2.765l.926.378Zm2.387-5.503c.425-.923.858-1.835 1.3-2.737l-.898-.44c-.445.909-.882 1.829-1.311 2.759l.909.418Zm2.654-5.41c.461-.882.931-1.754 1.411-2.614l-.873-.487c-.485.868-.959 1.748-1.425 2.638l.887.463Zm2.932-5.248a95.706 95.706 0 0 1 1.583-2.559l-.842-.54a95.153 95.153 0 0 0-1.599 2.586l.858.513Zm3.231-5.04a84.798 84.798 0 0 1 1.748-2.448l-.803-.596a84.885 84.885 0 0 0-1.769 2.477l.824.567Zm3.588-4.836a77.6 77.6 0 0 1 1.913-2.298l-.756-.655a78.077 78.077 0 0 0-1.938 2.328l.781.625Zm3.915-4.515a69.93 69.93 0 0 1 2.106-2.146l-.698-.716a70.81 70.81 0 0 0-2.137 2.177l.729.685Zm4.296-4.191a65.662 65.662 0 0 1 2.276-1.942l-.632-.775a65.603 65.603 0 0 0-2.31 1.971l.666.746Zm4.635-3.774a64.024 64.024 0 0 1 2.449-1.724l-.556-.831a64.155 64.155 0 0 0-2.488 1.751l.595.804Zm4.991-3.337a61.93 61.93 0 0 1 2.581-1.47l-.475-.881c-.889.48-1.763.978-2.622 1.494l.516.857Zm5.24-2.822a64.27 64.27 0 0 1 2.753-1.24l-.389-.921c-.948.4-1.88.82-2.796 1.259l.432.902Zm5.537-2.341a66.4 66.4 0 0 1 2.793-.961l-.305-.953a68.37 68.37 0 0 0-2.834.976l.346.938Zm5.677-1.815a72.21 72.21 0 0 1 2.975-.745l-.222-.975a74.262 74.262 0 0 0-3.017.755l.264.965Zm5.84-1.339c.962-.18 1.937-.344 2.926-.492l-.147-.989a78.838 78.838 0 0 0-2.963.498l.184.983Zm5.936-.884a89.574 89.574 0 0 1 3.07-.289l-.076-.997c-1.049.08-2.084.178-3.105.292l.111.994Zm5.964-.465a98.87 98.87 0 0 1 2.967-.089l-.015-1c-1.011.015-2.01.045-2.997.09l.045.999Zm6.008-.091c1.026.015 2.065.044 3.116.088l.042-.999c-1.06-.044-2.108-.074-3.144-.089l-.014 1Zm6.018.247c.968.065 1.946.142 2.934.232l.091-.996a126.52 126.52 0 0 0-2.958-.233l-.067.997Zm5.932.54c1.01.115 2.03.243 3.061.384l.136-.991a139.656 139.656 0 0 0-3.084-.387l-.113.994Zm6.104.832c.942.148 1.893.307 2.853.477l.174-.985c-.966-.171-1.923-.331-2.871-.48l-.156.988Zm5.759 1.017c.977.191 1.964.393 2.959.605l.209-.978a179.193 179.193 0 0 0-2.977-.608l-.191.981Zm5.973 1.275c1.007.232 2.024.475 3.049.73l.241-.971c-1.031-.255-2.052-.5-3.065-.734l-.225.975Zm5.838 1.442c.937.246 1.881.501 2.833.765l.267-.963a200.77 200.77 0 0 0-2.846-.769l-.254.967Zm5.711 1.584c.967.282 1.941.573 2.923.874l.293-.957c-.986-.301-1.965-.593-2.936-.877l-.28.96Zm5.892 1.802c.972.31 1.951.629 2.937.957l.316-.949c-.99-.329-1.973-.649-2.948-.961l-.305.953Zm5.673 1.882c.918.316 1.842.64 2.773.97l.335-.942c-.934-.332-1.862-.656-2.783-.973l-.325.945Zm5.583 1.986c.943.346 1.893.7 2.849 1.061l.353-.936c-.958-.362-1.911-.717-2.857-1.064l-.345.939Zm5.736 2.168c.969.376 1.944.761 2.925 1.153l.371-.929c-.984-.393-1.962-.778-2.934-1.156l-.362.932Zm5.661 2.259c.891.364 1.787.735 2.689 1.113l.386-.923c-.904-.378-1.803-.75-2.697-1.116l-.378.926Zm5.41 2.263c.913.39 1.83.786 2.753 1.189l.4-.916c-.925-.404-1.845-.801-2.76-1.192l-.393.919Zm5.538 2.417c.934.415 1.873.837 2.817 1.266l.414-.911c-.947-.43-1.888-.853-2.824-1.269l-.407.914Zm5.667 2.571c.478.22.957.443 1.438.667l.422-.906a301.76 301.76 0 0 0-1.44-.669l-.42.908ZM131 182l-.495-.069.495.069ZM-1.761 379.561a.5.5 0 1 0-.478.878l.478-.878Zm-.478.878c.452.246.912.47 1.379.674l.4-.916a17.306 17.306 0 0 1-1.301-.636l-.478.878Zm4.26 1.652c.98.244 1.986.41 3.016.5l.087-.996a18.509 18.509 0 0 1-2.862-.474l-.241.97Zm6.033.552c.98-.048 1.978-.157 2.993-.325l-.163-.987c-.98.162-1.94.267-2.88.313l.05.999Zm5.957-.97a37.552 37.552 0 0 0 2.873-.898l-.336-.942a36.5 36.5 0 0 1-2.796.874l.259.966Zm5.645-1.995a51.905 51.905 0 0 0 2.751-1.293l-.45-.892a51.6 51.6 0 0 1-2.7 1.268l.399.917Zm5.353-2.689a68.698 68.698 0 0 0 2.59-1.547l-.532-.847a69.26 69.26 0 0 1-2.551 1.524l.493.87Zm5.073-3.17a88.674 88.674 0 0 0 2.456-1.731l-.59-.808a85.965 85.965 0 0 1-2.428 1.712l.563.827Zm4.825-3.516c.78-.606 1.564-1.233 2.35-1.879l-.634-.773c-.78.641-1.557 1.262-2.33 1.862l.614.79Zm4.61-3.782c.753-.651 1.51-1.319 2.267-2.004l-.67-.742c-.753.681-1.503 1.344-2.25 1.989l.653.757Zm4.425-3.995c.721-.679 1.444-1.373 2.168-2.083l-.7-.714c-.72.705-1.437 1.394-2.153 2.069l.685.728Zm4.266-4.174c.689-.699 1.38-1.412 2.07-2.138l-.724-.689c-.687.721-1.374 1.43-2.059 2.125l.713.702Zm4.124-4.328c.66-.716 1.321-1.443 1.982-2.182l-.745-.667c-.658.735-1.315 1.459-1.972 2.171l.735.678Zm3.967-4.43c.644-.741 1.288-1.492 1.932-2.253l-.763-.646c-.641.758-1.282 1.505-1.924 2.242l.755.657Zm3.834-4.529c.634-.769 1.268-1.547 1.9-2.335l-.779-.626c-.63.784-1.261 1.559-1.892 2.325l.771.636Zm3.733-4.642a276.62 276.62 0 0 0 1.823-2.352l-.794-.608c-.605.789-1.21 1.57-1.816 2.343l.787.617Zm3.636-4.746a281.37 281.37 0 0 0 1.753-2.369l-.807-.59c-.582.794-1.164 1.581-1.747 2.36l.8.599Zm3.5-4.782c.578-.808 1.155-1.622 1.731-2.444l-.819-.574a283.61 283.61 0 0 1-1.725 2.435l.813.583Zm3.413-4.869c.56-.815 1.117-1.637 1.674-2.466l-.83-.557c-.555.825-1.111 1.644-1.669 2.457l.825.566Zm3.332-4.957c.539-.819 1.076-1.644 1.612-2.474l-.84-.542c-.534.828-1.07 1.65-1.607 2.466l.835.55Zm3.216-4.983c.531-.841 1.061-1.687 1.59-2.539l-.85-.527c-.527.85-1.056 1.693-1.586 2.531l.846.535Zm3.134-5.055c.514-.844 1.025-1.694 1.535-2.548l-.86-.512c-.507.852-1.017 1.699-1.53 2.54l.855.52Zm3.057-5.127c.496-.848.99-1.701 1.482-2.559l-.867-.497c-.49.855-.983 1.706-1.478 2.551l.863.505Zm2.95-5.142c.486-.865.97-1.735 1.453-2.61l-.875-.483c-.481.872-.965 1.74-1.45 2.603l.871.49Zm2.876-5.214c.47-.868.936-1.74 1.401-2.616l-.883-.468c-.464.873-.93 1.743-1.398 2.608l.88.476Zm2.788-5.255c.457-.879.912-1.761 1.364-2.648l-.891-.454c-.451.884-.904 1.764-1.36 2.64l.887.462Zm2.7-5.293c.443-.886.883-1.775 1.32-2.668l-.898-.44c-.436.89-.875 1.777-1.317 2.66l.895.448Zm2.624-5.355c.426-.888.85-1.78 1.271-2.675l-.905-.426c-.42.893-.842 1.782-1.268 2.668l.902.433Zm2.526-5.369c.415-.902.828-1.806 1.237-2.714l-.912-.411a370.87 370.87 0 0 1-1.233 2.706l.908.419Zm2.448-5.427c.399-.904.795-1.811 1.189-2.721l-.918-.396a369.87 369.87 0 0 1-1.186 2.713l.915.404Zm2.359-5.459c.386-.913.769-1.829 1.148-2.748l-.924-.382c-.379.917-.76 1.83-1.145 2.741l.921.389Zm2.271-5.495c.37-.918.738-1.839 1.102-2.762l-.93-.367c-.363.92-.73 1.839-1.1 2.754l.928.375Zm2.184-5.538c.355-.924.708-1.849 1.056-2.777l-.936-.352c-.348.925-.699 1.848-1.053 2.769l.933.36Zm2.09-5.564c.341-.93.678-1.863 1.012-2.798l-.942-.336c-.333.932-.669 1.862-1.009 2.791l.939.343Zm2-5.605c.325-.935.646-1.872.964-2.811l-.948-.321c-.316.937-.636 1.871-.96 2.804l.944.328Zm1.904-5.633c.31-.942.615-1.886.917-2.832l-.953-.303a356.74 356.74 0 0 1-.914 2.823l.95.312Zm1.808-5.668c.293-.947.582-1.895.867-2.845l-.958-.287c-.284.947-.572 1.892-.864 2.836l.955.296Zm1.708-5.698c.277-.952.549-1.906.816-2.86l-.962-.27c-.267.951-.539 1.902-.814 2.852l.96.278Zm1.606-5.728c.259-.957.514-1.916.764-2.875l-.968-.252c-.249.956-.503 1.911-.761 2.865l.965.262Zm1.501-5.755c.241-.963.478-1.927.71-2.891l-.973-.234c-.231.961-.467 1.922-.707 2.881l.97.244Zm1.392-5.787c.222-.966.44-1.933.653-2.9l-.976-.215c-.213.964-.43 1.928-.652 2.891l.975.224Zm1.278-5.808c.204-.972.403-1.945.597-2.917l-.981-.196c-.193.97-.391 1.939-.594 2.907l.978.206Zm1.163-5.837c.184-.974.362-1.948.535-2.922l-.984-.175c-.173.971-.351 1.941-.534 2.912l.983.185Zm1.042-5.859c.163-.979.321-1.958.474-2.938l-.988-.154c-.152.976-.31 1.952-.473 2.928l.987.164Zm.915-5.877c.071-.49.14-.979.208-1.469l-.99-.138c-.068.488-.137.976-.208 1.464l.99.143Zm.208-1.469c.072-.519.147-1.034.223-1.546l-.989-.149c-.077.516-.152 1.035-.224 1.557l.99.138Zm.712-4.579c.171-.997.353-1.982.543-2.953l-.982-.192c-.191.979-.374 1.97-.547 2.975l.986.17Zm1.14-5.828c.222-1.005.453-1.995.694-2.971l-.97-.24c-.244.984-.477 1.983-.7 2.996l.976.215Zm1.464-5.915c.267-.967.544-1.918.831-2.855l-.956-.293c-.29.946-.569 1.906-.839 2.882l.964.266Zm1.742-5.681c.332-.979.675-1.941 1.029-2.886l-.936-.351a96.569 96.569 0 0 0-1.04 2.916l.947.321Zm2.126-5.673c.378-.916.768-1.816 1.168-2.699l-.911-.413a86.27 86.27 0 0 0-1.181 2.731l.924.381Zm2.484-5.467a80.92 80.92 0 0 1 1.39-2.658l-.878-.48c-.481.879-.95 1.777-1.406 2.692l.894.446Zm2.856-5.217a71.576 71.576 0 0 1 1.621-2.582l-.836-.55a73.044 73.044 0 0 0-1.643 2.618l.858.514Zm3.318-5.048a68.77 68.77 0 0 1 1.791-2.373l-.786-.62a69.844 69.844 0 0 0-1.816 2.409l.811.584Zm3.718-4.706a64.405 64.405 0 0 1 2.006-2.211l-.726-.689a67.5 67.5 0 0 0-2.036 2.246l.756.654Zm4.117-4.335a64.044 64.044 0 0 1 2.217-2.031l-.658-.753a66.08 66.08 0 0 0-2.252 2.063l.693.721Zm4.509-3.942a65.988 65.988 0 0 1 2.394-1.814l-.585-.81a64.886 64.886 0 0 0-2.431 1.841l.622.783Zm4.866-3.513a66.58 66.58 0 0 1 2.543-1.584l-.51-.86a68.084 68.084 0 0 0-2.581 1.607l.548.837Zm5.155-3.055a70.082 70.082 0 0 1 2.679-1.361l-.434-.901c-.917.441-1.822.901-2.717 1.38l.472.882Zm5.404-2.606a76.884 76.884 0 0 1 2.777-1.137l-.361-.933c-.947.367-1.885.751-2.813 1.152l.397.918Zm5.612-2.173a87.225 87.225 0 0 1 2.841-.921l-.292-.956c-.967.294-1.925.605-2.874.932l.325.945Zm5.735-1.749c.965-.259 1.94-.503 2.922-.733l-.228-.974c-.992.232-1.977.479-2.953.741l.259.966Zm5.847-1.369c.982-.198 1.972-.383 2.969-.554l-.169-.985c-1.006.172-2.006.359-2.998.559l.198.98Zm5.937-1.02c.986-.142 1.978-.271 2.977-.388l-.117-.993c-1.006.118-2.007.248-3.001.391l.141.99Zm5.99-.702c.99-.091 1.986-.171 2.988-.24l-.069-.998c-1.009.07-2.013.15-3.011.242l.092.996Zm5.99-.413c1.006-.047 2.017-.083 3.033-.109l-.026-1c-1.022.026-2.04.063-3.053.11l.046.999Zm6.027-.156c1-.007 2.004-.003 3.012.009l.012-.999a153.223 153.223 0 0 0-3.03-.01l.006 1Zm6.047.075c.994.03 1.993.069 2.994.116l.047-.999a192.582 192.582 0 0 0-3.011-.117l-.03 1Zm6.003.282c1.006.063 2.015.134 3.026.213l.078-.997a197.7 197.7 0 0 0-3.042-.214l-.062.998Zm6.017.469c.997.092 1.997.192 2.999.298l.105-.994a225.65 225.65 0 0 0-3.012-.3l-.092.996Zm6.011.638c.993.119 1.987.244 2.984.375l.131-.991c-1.001-.132-2-.258-2.997-.377l-.118.993Zm5.969.787c.997.144 1.995.293 2.995.448l.153-.988a269.406 269.406 0 0 0-3.005-.45l-.143.99Zm5.971.927c.989.164 1.979.334 2.971.509l.173-.985c-.994-.176-1.987-.346-2.98-.511l-.164.987Zm5.946 1.049c.988.184 1.977.374 2.966.568l.192-.982c-.992-.194-1.984-.384-2.975-.569l-.183.983Zm5.922 1.161c.986.202 1.971.409 2.957.62l.209-.978a347.33 347.33 0 0 0-2.965-.622l-.201.98Zm5.91 1.264c.981.218 1.962.44 2.943.666l.224-.974c-.983-.227-1.966-.45-2.95-.668l-.217.976Zm5.883 1.355c.979.233 1.958.469 2.936.709l.238-.971c-.98-.24-1.961-.478-2.942-.711l-.232.973Zm5.869 1.439c.976.246 1.951.496 2.926.748l.25-.968c-.976-.253-1.953-.503-2.932-.75l-.244.97Zm5.843 1.513c.976.259 1.951.521 2.923.785l.262-.965c-.974-.265-1.95-.527-2.928-.786l-.257.966Zm5.838 1.584c.969.269 1.937.54 2.902.813l.272-.962c-.967-.273-1.936-.545-2.907-.814l-.267.963Zm5.813 1.644c.971.28 1.939.561 2.905.844l.281-.96a672.07 672.07 0 0 0-2.91-.845l-.276.961Zm5.795 1.697c.968.289 1.934.578 2.897.869l.289-.958c-.964-.291-1.931-.581-2.901-.869l-.285.958Zm5.796 1.75c.963.295 1.923.591 2.879.887l.296-.955a763.11 763.11 0 0 0-2.882-.888l-.293.956Zm5.763 1.786c.969.304 1.935.608 2.896.912l.301-.953a841.22 841.22 0 0 0-2.898-.913l-.299.954Zm5.765 1.825c.963.308 1.921.615 2.874.922l.307-.952c-.954-.307-1.913-.615-2.876-.923l-.305.953Zm5.767 1.858c.96.311 1.914.621 2.862.931l.31-.951c-.949-.31-1.903-.62-2.863-.932l-.309.952Zm5.733 1.87 2.89.949.313-.95-2.892-.95-.311.951Zm5.742 1.889 2.879.95.314-.95-2.88-.95-.313.95Zm5.765 1.902 2.837.934.312-.949-2.836-.935-.313.95Zm5.743 1.889c.967.317 1.925.63 2.873.938l.309-.951c-.947-.308-1.904-.621-2.871-.937l-.311.95Zm5.725 1.863c.985.318 1.958.63 2.918.936l.304-.953c-.959-.305-1.931-.617-2.915-.935l-.307.952Zm5.763 1.837c.99.31 1.966.614 2.927.91l.294-.956c-.959-.295-1.933-.598-2.921-.909l-.3.955Zm5.809 1.786 1.406.419.284-.959c-.464-.137-.931-.277-1.402-.418l-.288.958Z" fill="#1149C0"/>
    </g>
    <defs>
        <clipPath id="a">
            <rect width="375" height="812" rx="25" fill="#fff"/>
        </clipPath>
    </defs>
</svg>
